# xmcd
#
# Track frame offsets:
#	150
#	15795
#	28827
#	45752
#	61572
#	77052
#	92780
#	112105
#	128225
#	145310
#	165845
#	182370
#	199465
#	217885
#
# Disc length: 3154 seconds
#
# Revision: 10
# Processed by: cddbd v1.5.1PL2 Copyright (c) Steve Scherf et al.
# Submitted via: dBpowerAMP V4.0
#
DISCID=a90c500e
DTITLE=Kenny Rogers - The Very Best Of
DYEAR=1990
DGENRE=Country
TTITLE0=What I Did For Love
TTITLE1=Ruby Don't Take Your Love To Town
TTITLE2=Don't Fall In Love With A Dreamer (Duet with Kim Carnes
TTITLE3=The Gambler
TTITLE4=Daytime Friends
TTITLE5=Love Is Strange (Duet with Dolly Parton)
TTITLE6=She Believes In Me
TTITLE7=Lucille
TTITLE8=Lady
TTITLE9=Coward Of The County
TTITLE10=You Decorated My Life
TTITLE11=Love Lifted Me
TTITLE12=Something's Burning
TTITLE13=Islands In The Stream (Duet with Dolly Parton)
EXTD=
EXTT0=
EXTT1=
EXTT2=
EXTT3=
EXTT4=
EXTT5=
EXTT6=
EXTT7=
EXTT8=
EXTT9=
EXTT10=
EXTT11=
EXTT12=
EXTT13=
PLAYORDER=
